<?xml version="1.0" encoding="UTF-8"?>
<svg id="Calque_1" data-name="Calque 1" xmlns="http://www.w3.org/2000/svg" xmlns:xlink="http://www.w3.org/1999/xlink" viewBox="0 0 380.13 100.91" xmlns:c2pa="http://c2pa.org/manifest"><metadata><c2pa:manifest>AAAWgmp1bWIAAAAeanVtZGMycGEAEQAQgAAAqgA4m3EDYzJwYQAAABZcanVtYgAAAEdqdW1kYzJtYQARABCAAACqADibcQN1cm46YzJwYTpjODZiMjQ2MC0xOGQxLTQ1ZjAtYTgxNC02MDUwYzQwODYyZjcAAAADl2p1bWIAAAApanVtZGMyYXMAEQAQgAAAqgA4m3EDYzJwYS5hc3NlcnRpb25zAAAAALxqdW1iAAAARGp1bWRjYm9yABEAEIAAAKoAOJtxE2MycGEuaW5ncmVkaWVudC52MwAAAAAYYzJzaAgcFyvDDp3osKfgIowu3U4AAABwY2JvcqNpZGM6Zm9ybWF0bWltYWdlL3N2Zyt4bWxqaW5zdGFuY2VJRHgseG1wOmlpZDplZWE5ODQ3Mi00ZDkyLTRlNGEtOWZhOS0xODkxN2E2YzE1MmFscmVsYXRpb25zaGlwaHBhcmVudE9mAAAB4mp1bWIAAABBanVtZGNib3IAEQAQgAAAqgA4m3ETYzJwYS5hY3Rpb25zLnYyAAAAABhjMnNoxDLMzqbOwb1kZKV9d2JhRwAAAZljYm9yomdhY3Rpb25zgqJmYWN0aW9ua2MycGEub3BlbmVkanBhcmFtZXRlcnOha2luZ3JlZGllbnRzgaJjdXJseC1zZWxmI2p1bWJmPWMycGEuYXNzZXJ0aW9ucy9jMnBhLmluZ3JlZGllbnQudjNkaGFzaFgg2Ln4fcqOjOnsKDyVkHu3HW6AGIKhLspjVePNwnmV9/mkZmFjdGlvbngdY29tLmFudGhyb3BpYy5jbGF1ZGUucHJvdmlkZWRqcGFyYW1ldGVyc6F4H2NvbS5hbnRocm9waWMub3JpZ2luLWNvbmZpZGVuY2VndW5rbm93bmtkZXNjcmlwdGlvbnhmQ2xhdWRlIHByb3ZpZGVkIHRoaXMgZmlsZSBhdCB0aGUgcmVxdWVzdCBvZiBhIHVzZXIgYW5kIG1heSBoYXZlIGNyZWF0ZWQgb3IgbW9kaWZpZWQgdGhlIGZpbGUgY29udGVudHMubXNvZnR3YXJlQWdlbnShZG5hbWVmQ2xhdWRlcmFsbEFjdGlvbnNJbmNsdWRlZPUAAADIanVtYgAAAEBqdW1kY2JvcgARABCAAACqADibcRNjMnBhLmhhc2guZGF0YQAAAAAYYzJzaCEXwxvX5SR2i4rqI76LCrcAAACAY2JvcqVjYWxnZnNoYTI1NmNwYWRNAAAAAAAAAAAAAAAAAGRoYXNoWCAXa0aJVZcbJT2rpZ/Ryp6BFCKXxCX0PqOjyeKNTqZP12RuYW1lbmp1bWJmIG1hbmlmZXN0amV4Y2x1c2lvbnOBomVzdGFydBj4Zmxlbmd0aBkeBAAAAj5qdW1iAAAAJ2p1bWRjMmNsABEAEIAAAKoAOJtxA2MycGEuY2xhaW0udjIAAAACD2Nib3KlY2FsZ2ZzaGEyNTZpc2lnbmF0dXJleE1zZWxmI2p1bWJmPS9jMnBhL3VybjpjMnBhOmM4NmIyNDYwLTE4ZDEtNDVmMC1hODE0LTYwNTBjNDA4NjJmNy9jMnBhLnNpZ25hdHVyZWppbnN0YW5jZUlEeCx4bXA6aWlkOmQzZDkxNjJlLTEzNjgtNGIwMy05MmRlLTU3NjFlMWMwNjRiOHJjcmVhdGVkX2Fzc2VydGlvbnODomN1cmx4LXNlbGYjanVtYmY9YzJwYS5hc3NlcnRpb25zL2MycGEuaW5ncmVkaWVudC52M2RoYXNoWCDYufh9yo6M6ewoPJWQe7cdboAYgqEuymNV483CeZX3+aJjdXJseCpzZWxmI2p1bWJmPWMycGEuYXNzZXJ0aW9ucy9jMnBhLmFjdGlvbnMudjJkaGFzaFggJQ/ITkZRQzLbyNdKr0LD4/YKmdiksPhUbCgdTuh87eeiY3VybHgpc2VsZiNqdW1iZj1jMnBhLmFzc2VydGlvbnMvYzJwYS5oYXNoLmRhdGFkaGFzaFggRTzlaAyNUfIUm//Ovu3v9EFJD47sI18+fzYx4GLOGHZ0Y2xhaW1fZ2VuZXJhdG9yX2luZm+jZG5hbWVvQW50aHJvcGljIEZpbGVzZ3ZlcnNpb25lMS4wLjBrc3BlY1ZlcnNpb25lMi40LjAAABA4anVtYgAAAChqdW1kYzJjcwARABCAAACqADibcQNjMnBhLnNpZ25hdHVyZQAAABAIY2JvctKEWQISogEmGCFZAgowggIGMIIBjaADAgECAhRA5aAK7sI50L64g/oGQgU9Z1UTADAKBggqhkjOPQQDAzBJMRcwFQYDVQQKEw5BbnRocm9waWMsIFBCQzEuMCwGA1UEAxMlQW50aHJvcGljIENvbnRlbnQgQ3JlZGVudGlhbHMgUm9vdCBDQTAeFw0yNjA4MDcxODQzNTZaFw0yODA4MDYxOTQzNTZaMEQxFzAVBgNVBAoTDkFudGhyb3BpYywgUEJDMSkwJwYDVQQDEyBBbnRocm9waWMgQ2xhdWRlIENvbnRlbnQgU2lnbmluZzBZMBMGByqGSM49AgEGCCqGSM49AwEHA0IABJh6CmvLUBgFFNU0vUKlOVtE6djd17L5SuwX0LemFisBM3dkd/3cyjxFA3Qo5S46fX0/ihY0VZ7mfb9KF703t5OjWDBWMA4GA1UdDwEB/wQEAwIHgDAVBgNVHSUEDjAMBgorBgEEAYPoXgIBMAwGA1UdEwEB/wQCMAAwHwYDVR0jBBgwFoAUzlHiBIFOZFsj+OPEz5o+nMHXXMIwCgYIKoZIzj0EAwMDZwAwZAIwMXMdFJ4BetLLVY7ORuE9noqbbAZOZn/aArXyTwFAZfKrPzxF2vPoJNf1+UCdg1XGAjBwX1zd9WGqYkqmL5SFqw1QySjr1zJfpJM9+1rdDwSPLMOPOjKuiXjoU/pUUeG9RwmhY3BhZFkNngAAAAAAAAAAAAAAAAAAAAAAAAAAAAAAAAAAAAAAAAAAAAAAAAAAAAAAAAAAAAAAAAAAAAAAAAAAAAAAAAAAAAAAAAAAAAAAAAAAAAAAAAAAAAAAAAAAAAAAAAAAAAAAAAAAAAAAAAAAAAAAAAAAAAAAAAAAAAAAAAAAAAAAAAAAAAAAAAAAAAAAAAAAAAAAAAAAAAAAAAAAAAAAAAAAAAAAAAAAAAAAAAAAAAAAAAAAAAAAAAAAAAAAAAAAAAAAAAAAAAAAAAAAAAAAAAAAAAAAAAAAAAAAAAAAAAAAAAAAAAAAAAAAAAAAAAAAAAAAAAAAAAAAAAAAAAAAAAAAAAAAAAAAAAAAAAAAAAAAAAAAAAAAAAAAAAAAAAAAAAAAAAAAAAAAAAAAAAAAAAAAAAAAAAAAAAAAAAAAAAAAAAAAAAAAAAAAAAAAAAAAAAAAAAAAAAAAAAAAAAAAAAAAAAAAAAAAAAAAAAAAAAAAAAAAAAAAAAAAAAAAAAAAAAAAAAAAAAAAAAAAAAAAAAAAAAAAAAAAAAAAAAAAAAAAAAAAAAAAAAAAAAAAAAAAAAAAAAAAAAAAAAAAAAAAAAAAAAAAAAAAAAAAAAAAAAAAAAAAAAAAAAAAAAAAAAAAAAAAAAAAAAAAAAAAAAAAAAAAAAAAAAAAAAAAAAAAAAAAAAAAAAAAAAAAAAAAAAAAAAAAAAAAAAAAAAAAAAAAAAAAAAAAAAAAAAAAAAAAAAAAAAAAAAAAAAAAAAAAAAAAAAAAAAAAAAAAAAAAAAAAAAAAAAAAAAAAAAAAAAAAAAAAAAAAAAAAAAAAAAAAAAAAAAAAAAAAAAAAAAAAAAAAAAAAAAAAAAAAAAAAAAAAAAAAAAAAAAAAAAAAAAAAAAAAAAAAAAAAAAAAAAAAAAAAAAAAAAAAAAAAAAAAAAAAAAAAAAAAAAAAAAAAAAAAAAAAAAAAAAAAAAAAAAAAAAAAAAAAAAAAAAAAAAAAAAAAAAAAAAAAAAAAAAAAAAAAAAAAAAAAAAAAAAAAAAAAAAAAAAAAAAAAAAAAAAAAAAAAAAAAAAAAAAAAAAAAAAAAAAAAAAAAAAAAAAAAAAAAAAAAAAAAAAAAAAAAAAAAAAAAAAAAAAAAAAAAAAAAAAAAAAAAAAAAAAAAAAAAAAAAAAAAAAAAAAAAAAAAAAAAAAAAAAAAAAAAAAAAAAAAAAAAAAAAAAAAAAAAAAAAAAAAAAAAAAAAAAAAAAAAAAAAAAAAAAAAAAAAAAAAAAAAAAAAAAAAAAAAAAAAAAAAAAAAAAAAAAAAAAAAAAAAAAAAAAAAAAAAAAAAAAAAAAAAAAAAAAAAAAAAAAAAAAAAAAAAAAAAAAAAAAAAAAAAAAAAAAAAAAAAAAAAAAAAAAAAAAAAAAAAAAAAAAAAAAAAAAAAAAAAAAAAAAAAAAAAAAAAAAAAAAAAAAAAAAAAAAAAAAAAAAAAAAAAAAAAAAAAAAAAAAAAAAAAAAAAAAAAAAAAAAAAAAAAAAAAAAAAAAAAAAAAAAAAAAAAAAAAAAAAAAAAAAAAAAAAAAAAAAAAAAAAAAAAAAAAAAAAAAAAAAAAAAAAAAAAAAAAAAAAAAAAAAAAAAAAAAAAAAAAAAAAAAAAAAAAAAAAAAAAAAAAAAAAAAAAAAAAAAAAAAAAAAAAAAAAAAAAAAAAAAAAAAAAAAAAAAAAAAAAAAAAAAAAAAAAAAAAAAAAAAAAAAAAAAAAAAAAAAAAAAAAAAAAAAAAAAAAAAAAAAAAAAAAAAAAAAAAAAAAAAAAAAAAAAAAAAAAAAAAAAAAAAAAAAAAAAAAAAAAAAAAAAAAAAAAAAAAAAAAAAAAAAAAAAAAAAAAAAAAAAAAAAAAAAAAAAAAAAAAAAAAAAAAAAAAAAAAAAAAAAAAAAAAAAAAAAAAAAAAAAAAAAAAAAAAAAAAAAAAAAAAAAAAAAAAAAAAAAAAAAAAAAAAAAAAAAAAAAAAAAAAAAAAAAAAAAAAAAAAAAAAAAAAAAAAAAAAAAAAAAAAAAAAAAAAAAAAAAAAAAAAAAAAAAAAAAAAAAAAAAAAAAAAAAAAAAAAAAAAAAAAAAAAAAAAAAAAAAAAAAAAAAAAAAAAAAAAAAAAAAAAAAAAAAAAAAAAAAAAAAAAAAAAAAAAAAAAAAAAAAAAAAAAAAAAAAAAAAAAAAAAAAAAAAAAAAAAAAAAAAAAAAAAAAAAAAAAAAAAAAAAAAAAAAAAAAAAAAAAAAAAAAAAAAAAAAAAAAAAAAAAAAAAAAAAAAAAAAAAAAAAAAAAAAAAAAAAAAAAAAAAAAAAAAAAAAAAAAAAAAAAAAAAAAAAAAAAAAAAAAAAAAAAAAAAAAAAAAAAAAAAAAAAAAAAAAAAAAAAAAAAAAAAAAAAAAAAAAAAAAAAAAAAAAAAAAAAAAAAAAAAAAAAAAAAAAAAAAAAAAAAAAAAAAAAAAAAAAAAAAAAAAAAAAAAAAAAAAAAAAAAAAAAAAAAAAAAAAAAAAAAAAAAAAAAAAAAAAAAAAAAAAAAAAAAAAAAAAAAAAAAAAAAAAAAAAAAAAAAAAAAAAAAAAAAAAAAAAAAAAAAAAAAAAAAAAAAAAAAAAAAAAAAAAAAAAAAAAAAAAAAAAAAAAAAAAAAAAAAAAAAAAAAAAAAAAAAAAAAAAAAAAAAAAAAAAAAAAAAAAAAAAAAAAAAAAAAAAAAAAAAAAAAAAAAAAAAAAAAAAAAAAAAAAAAAAAAAAAAAAAAAAAAAAAAAAAAAAAAAAAAAAAAAAAAAAAAAAAAAAAAAAAAAAAAAAAAAAAAAAAAAAAAAAAAAAAAAAAAAAAAAAAAAAAAAAAAAAAAAAAAAAAAAAAAAAAAAAAAAAAAAAAAAAAAAAAAAAAAAAAAAAAAAAAAAAAAAAAAAAAAAAAAAAAAAAAAAAAAAAAAAAAAAAAAAAAAAAAAAAAAAAAAAAAAAAAAAAAAAAAAAAAAAAAAAAAAAAAAAAAAAAAAAAAAAAAAAAAAAAAAAAAAAAAAAAAAAAAAAAAAAAAAAAAAAAAAAAAAAAAAAAAAAAAAAAAAAAAAAAAAAAAAAAAAAAAAAAAAAAAAAAAAAAAAAAAAAAAAAAAAAAAAAAAAAAAAAAAAAAAAAAAAAAAAAAAAAAAAAAAAAAAAAAAAAAAAAAAAAAAAAAAAAAAAAAAAAAAAAAAAAAAAAAAAAAAAAAAAAAAAAAAAAAAAAAAAAAAAAAAAAAAAAAAAAAAAAAAAAAAAAAAAAAAAAAAAAAAAAAAAAAAAAAAAAAAAAAAAAAAAAAAAAAAAAAAAAAAAAAAAAAAAAAAAAAAAAAAAAAAAAAAAAAAAAAAAAAAAAAAAAAAAAAAAAAAAAAAAAAAAAAAAAAAAAAAAAAAAAAAAAAAAAAAAAAAAAAAAAAAAAAAAAAAAAAAAAAAAAAAAAAAAAAAAAAAAAAAAAAAAAAAAAAAAAAAAAAAAAAAAAAAAAAAAAAAAAAAAAAAAAAAAAAAAAAAAAAAAAAAAAAAAAAAAAAAAAAAAAAAAAAAAAAAAAAAAAAAAAAAAAAAAAAAAAAAAAAAAAAAAAAAAAAAAAAAAAAAAAAAAAAAAAAAAAAAAAAAAAAAAAAAAAAAAAAAAAAAAAAAAAAAAAAAAAAAAAAAAAAAAAAAAAAAAAAAAAAAAAAAAAAAAAAAAAAAAAAAAAAAAAAAAAAAAAAAAAAAAAAAAAAAAAAAAAAAAAAAAAAAAAAAAAAAAAAAAAAAAAAAAAAAAAAAAAAAAAAAAAAAAAAAAAAAAAAAAAAAAAAAAAAAAAAAAAAAAAAAAAAAAAAAAAAAAAAAAAAAAAAAAAAAAAAAAAAAAAAAAAAAAAAAAAAAAAAAAAAAAAAAAAAAAAAAAAAAAAAAAAAAAAAAAAAAAAAAAAAAAAAAAAAAAAAAAAAAAAAAAAAAAAAAAAAAAAAAAAAAAAAAAAAAAAAAAAAAAAAAAAAAAAAAAAAAAAAAAAAAAAAAAAAAAAAAAAAAAAAAAAAAAAAAAAAAAAAAAAAAAAAAAAAAAAAAAAAAAAAAAAAAAAAAAAAAAAAAAAAAAAAAAAAAAAAAAAAAAAAAAAAAAAAAAAAAAAAAAAAAAAAAAAAAAAAAAAAAAAAAAAAAAAAAAAAAAAAAAAAAAAAAAAAAAAAAAAAAAAAAAAAAAAAAAAAAAAAAAAAAAAAAAAAAAAAAAAAAAAAAAAAAAAAAAAAAAAAAAAAAAAAAAAAAAAAAAAAAAAAAAAAAAAAAAAAAAAAAAAAAAAAAAAAAAAAAAAAAAAAAAAAAAAAAAAAAAAAAAAAAAAAAAAAAAAAAAAAAAAAAAAAAAAAAAAAAAAAAAAAAAAAAAAAAAAAAAAAAAAAAAAAAAAAAAAAAAAAAAAAAAAAAAAAAAAAAAAAAAAAAAAAAAAAAAAAAAAAAAAAAAAAAAAAAAAAAAAAAAAAAAAAAAAAAAAAAAAAAAAAAAAAAAAAAAAAAAAAAAAAAAAAAAAAAAAAAAAAAAAAAAAAAAAAAAAAAAAAAAAAAAAAAAAAAAAAAAAAAAAAAAAAAAAAAAAAAAAAAAAAAAAAAAAAAAAAAAAAAAAAAAAAAAAAAAAAAAAAAAAAAAAAAAAAAAAAAAAAAAAAAAAAAAAAAAAAAAAAAAAAAAAAAAAPZYQMmJ2cKr8DKtUbJINtG6xnGa/UDr0g0Azm8moiq4TmpYNGN4Mt7fnXZtxVVRVKD2/YiwNucKBjiQvGREz6jcCzs=</c2pa:manifest></metadata>
  <defs>
    <style>
      .cls-1 {
        fill: #fff;
      }

      .cls-2 {
        fill: url(#Dégradé_sans_nom_59);
      }

      .cls-2, .cls-3 {
        fill-rule: evenodd;
      }

      .cls-3 {
        fill: url(#linear-gradient);
      }
    </style>
    <linearGradient id="Dégradé_sans_nom_59" data-name="Dégradé sans nom 59" x1="0" y1="50.46" x2="160.47" y2="50.46" gradientUnits="userSpaceOnUse">
      <stop offset="0" stop-color="#035587"/>
      <stop offset=".49" stop-color="#007cd8"/>
      <stop offset="1" stop-color="#035587"/>
    </linearGradient>
    <linearGradient id="linear-gradient" x1="160.47" y1="50.46" x2="380.13" y2="50.46" gradientUnits="userSpaceOnUse">
      <stop offset="0" stop-color="#dd9f22"/>
      <stop offset=".55" stop-color="#ffd741"/>
      <stop offset="1" stop-color="#dd9f22"/>
    </linearGradient>
  </defs>
  <path class="cls-2" d="M160.47,100.91L10.24,86.59c-5.63-.54-10.24-5.61-10.24-11.26V25.59c0-5.66,4.61-10.73,10.24-11.26L160.47,0v100.91Z"/>
  <g>
    <path class="cls-1" d="M10.05,26.78l23.16-1.44c2.16-.13,3.93,2.07,3.93,4.93s-1.77,5.24-3.93,5.32l-7.24.26v34.09c0,3.51-2.11,6.22-4.68,6.05-2.54-.17-4.57-3.08-4.57-6.51v-33.3l-6.66.24c-1.9.07-3.42-2.02-3.42-4.66s1.52-4.88,3.42-5Z"/>
    <path class="cls-1" d="M47.69,54.13l3.77.04c0-4.09-.33-6.83-4.21-6.81-4.61.03-5.28,4.38-8.54,4.37-2.3,0-4.17-1.91-4.17-4.95,0-6.47,7.64-8.47,12.82-8.62,8.8-.26,14.36,3.91,14.36,15.97v18.12c0,3.47-2.16,6.28-4.99,6.1-2.51-.17-4.54-2.56-4.88-5.54-2.4,4.01-5.48,5.21-9.37,4.95-5.34-.36-9.73-4.62-9.73-11.83,0-10.64,8.24-11.84,14.94-11.78ZM45.77,69.68c3.74.18,5.74-3.4,5.74-7.91v-.63l-3.28-.08c-2.52-.07-5.97.4-5.97,4.46,0,2.62,1.56,4.07,3.51,4.16Z"/>
    <path class="cls-1" d="M69.3,27.59c0-3.75,2.51-6.93,5.73-7.14,3.21-.22,5.82,2.7,5.82,6.55v26.02l9.89-13.66c.94-1.34,2.35-2.07,3.91-2.11,2.81-.08,5.16,2.53,5.16,5.75,0,1.57-.56,2.91-1.39,4.02l-5.81,7.31,8.87,16.48c.56,1.05.91,2.33.91,3.67,0,3.79-2.73,6.69-6.04,6.48-2.18-.14-4.08-1.58-5.09-3.58l-7.33-14.33-3.1,3.98v5.96c0,3.85-2.61,6.76-5.88,6.55-3.16-.21-5.67-3.39-5.67-7.13V27.59Z"/>
    <path class="cls-1" d="M127.36,54.87l5.36.05c0-4.88-.48-8.15-5.98-8.12-6.53.05-7.47,5.21-12.07,5.19-3.24-.01-5.85-2.26-5.85-5.87,0-7.66,10.75-10.08,18.08-10.3,12.53-.36,20.51,4.6,20.51,19.05v21.73c0,4.16-3.1,7.5-7.16,7.23-3.59-.24-6.48-3.12-6.96-6.69-3.41,4.75-7.79,6.13-13.3,5.76-7.53-.5-13.69-5.62-13.69-14.14,0-12.59,11.58-13.99,21.06-13.91ZM124.64,73.38c5.3.25,8.16-3.99,8.16-9.37v-.76l-4.66-.12c-3.57-.09-8.46.44-8.46,5.27,0,3.11,2.2,4.85,4.96,4.98Z"/>
  </g>
  <path class="cls-3" d="M369.61,86.14l-209.14,14.77V0l209.14,14.34c5.92.42,10.52,5.35,10.52,11.29v49.23c0,5.94-4.59,10.87-10.52,11.29Z"/>
  <g>
    <path class="cls-1" d="M177.06,30.34c0-7.14,5.65-12.71,12.45-12.39,5.29.25,9.71,3.91,11.3,8.86l9.32,28.28c.7,2.23,1.16,4.13,1.39,5.54l.38,2.31h.46s.38-2.33.38-2.33c.31-1.41.69-3.23,1.45-5.55l8.96-27.81c1.41-4.42,5.38-7.48,9.87-7.27,5.57.26,10.07,5.52,10.07,11.67v42.28c0,4.02-2.95,7.48-6.63,7.66-3.65.18-6.7-3.05-6.7-7.16v-34.22h-.44s-.58,3.29-.58,3.29c-.37,2.01-1.02,4.59-1.83,7.18l-8.33,26.3c-.98,3.16-3.86,5.68-7.15,5.84-3.4.17-6.29-2.12-7.31-5.25l-9-26.87c-.89-2.72-1.62-5.53-2.02-7.57-.24-1.19-.49-2.39-.65-3.5h-.49s0,36.55,0,36.55c0,4.18-3.28,7.75-7.33,7.94s-7.57-3.11-7.57-7.38V30.34Z"/>
    <path class="cls-1" d="M269.31,54.44l4.33-.03c0-4.35-.38-7.28-4.84-7.31-5.51-.03-6.33,4.79-10.39,4.8-2.94,0-5.36-2.16-5.36-5.65,0-7.43,9.68-9.26,15.88-9.13,9.92.21,15.83,4.76,15.83,17.07v18.5c0,3.54-2.26,6.67-5.29,6.82-2.74.13-5-2.15-5.38-5.29-2.73,4.55-6.32,6.24-10.99,6.47-6.68.33-12.42-3.98-12.42-12.32,0-12.31,10.58-13.87,18.64-13.92ZM267.05,71.45c4.36-.15,6.65-4.13,6.65-8.94v-.68l-3.75.07c-2.96.06-7.12.75-7.12,5.26,0,2.9,1.89,4.37,4.23,4.29Z"/>
    <path class="cls-1" d="M292.56,38.64l2.01.04.24-5.36c.12-3.18,2.35-5.7,4.96-5.6,2.71.11,4.88,2.9,4.88,6.24v4.91l3.34.07c1.91.04,3.41,2.04,3.41,4.36s-1.5,4.36-3.41,4.35h-3.11s0,15.86,0,15.86c0,4.06,1.79,4.83,3.06,5.24,2.35.77,4.02,1.63,4.02,4.09,0,5.2-4.06,5.54-7.65,5.72-7.56.37-10.21-4.28-10.15-13.64l.06-17.33h-1.66c-2.02-.02-3.64-2.07-3.64-4.49s1.62-4.51,3.64-4.46Z"/>
    <path class="cls-1" d="M330.51,38.44c4.9.11,10.83,2.53,10.83,8.77,0,3.07-1.35,4.8-3.61,4.81-3.54.01-3.44-4.51-7.58-4.54-2.87-.01-5.03,3.13-5.03,10.55s2.27,10.5,5.03,10.41c4.17-.14,4.25-5.27,7.84-5.36,2.36-.06,3.81,1.77,3.81,4.97,0,6.37-6.35,9.18-11.7,9.44-10.11.5-15-7.09-15-19.25,0-11.19,5.43-20.02,15.42-19.81Z"/>
    <path class="cls-1" d="M346.62,29.94c0-3.37,2.05-6.04,4.51-5.91,2.44.12,4.43,2.95,4.43,6.26v14.99c1.18-3.29,3.52-6.09,7.59-6,6.3.13,8.66,5.65,8.66,13.51v16.35c0,3.21-1.87,5.94-4.16,6.05-2.31.11-4.23-2.48-4.23-5.74v-14.77c0-5.37-2.16-6.4-3.65-6.41-1.77,0-4.22,1.22-4.22,7.97v13.5c0,3.31-1.99,6.13-4.43,6.25-2.46.12-4.51-2.55-4.51-5.92V29.94Z"/>
  </g>
</svg>